<svg xmlns="http://www.w3.org/2000/svg" width="166" height="40" fill="none"><g clip-path="url(#a)"><path fill="#80C343" d="M165.501 1.8c-.6-.8-1.2-1.4-4.1-1.6-.7-.1-3.2-.1-7.3-.1-10.8 0-18.2 3.3-21.9 9.8 1-6.6-5.3-9.8-19.1-9.8-16.1-.1-26.2 6.5-30.3 19.5-1.5 3.8-1.6 8-.5 12l-3.8.3c-3 .2-6.9.4-9.3.4-5.9 0-9.6-1-11-3-1.3-1.8-1.1-5.1.3-10 2.5-8 8.6-11.6 18.3-11.6 5.1 0 10 .5 10 .5.6-.1 1-.7.9-1.3v-.1l-.1-.8-.3-2.7c-.2-1.8-1.5-2.8-3.9-3.2-2.1 0-3.8-.1-6.2-.1h-.1c-12.8 0-21.7 4.3-26.7 12.7 1.8-8.5-4.1-12.7-17.8-12.7-5.5-.1-10.9.1-16.3.7-2.1 0-3.9 1.2-4.6 3.2l-1.1 3.5c-.2.6.1 1 .9 1q.9-.15 6.9-.6c5.2-.6 9.1-.8 11.6-.8 7.5 0 10.7 1.9 9.5 5.7-.2.8-.9 1.4-1.7 1.6-7.1 1.2-12.8 2-16.9 2.6-11.8 1.4-18.5 5.1-20.4 11q-3.75 12 18.9 12c6.3.1 12.7-.4 18.9-1.3 2.9-.5 4.4-1.3 5-3.2l2.8-9c-.3 9 6 13.5 18.8 13.5 4.5.1 8.9-.1 13.3-.6 2.6-.5 3.9-1 4.5-3l.6-2.8c2.7 4.3 8.7 6.4 18 6.4 9.8 0 15.5-.3 17.1-.8 1.1-.2 2.1-1 2.5-2.1.1-.2.1-.4.1-.6l1.2-3.8c.2-.7-.1-1-.9-1l-6.3.3c-4.2.2-7.4.4-9.8.3-3.1.2-6.2-.1-9.2-.9-2.4-.8-3.9-3.2-3.5-5.7l19.8-2.6c8.9-1.1 14.8-3.9 17.8-8.2l-6.7 23.5c-.1.4-.1.8.1 1.1.4.3.8.5 1.3.4h8.2c.9.1 1.9-.4 2.1-1.4l7.2-25.4c1-3.3 4-5 9.3-5 4.8 0 8.4 0 10.7.1h.2c.8 0 1.5-.5 1.7-1.3l1.3-3.5c.4-.3.4-1 0-1.5m-132.1 30.5c-3.7.5-7.4.7-11 .6-8.3 0-12-1.7-10.9-5.1.8-2.4 2.9-3.9 6.6-4.4l18.9-2.5zm87.6-20.5c-.8 2.6-4.5 4.4-11.1 5.3l-15.8 2.3.4-1.3c.8-3.5 2.7-6.6 5.6-8.7 2.4-1.5 6.3-2.3 11.7-2.3 7.1-.1 10.2 1.5 9.2 4.7"/></g><defs><clipPath id="a"><path fill="#fff" d="M0 0h165.8v40H0z"/></clipPath></defs></svg>