<svg xmlns="http://www.w3.org/2000/svg" width="144" height="43" fill="none"><g fill="#040633" clip-path="url(#a)"><path d="M96.293 26.88c-.3-.1-.5-.4-.5-.8s.4-1 1-1 .4 0 .5.1c1 .7 2.1 1 3 1s1.6-.4 1.6-1.1c0-.9-1.1-1.1-2.3-1.5-1.6-.4-3.3-1.1-3.3-3.1s1.7-3.2 3.7-3.2 2.3.3 3.3.9c.3.2.6.5.6.9s-.5 1-1 1-.3 0-.5-.1c-.9-.4-1.7-.7-2.5-.7s-1.5.4-1.5 1.1c0 .8 1.1 1.1 2.4 1.5 1.5.5 3.3 1.2 3.3 3.1 0 2.2-1.7 3.3-3.9 3.3s-2.8-.4-4-1.3zM106.693 24.979v-5.5h-.4c-.6 0-1-.5-1-1s.5-1 1-1h.4v-1.8c0-.7.5-1.2 1.2-1.2s1.2.5 1.2 1.2v1.8h1.9c.6 0 1 .5 1 1s-.5 1-1 1h-1.9v5.2c0 .9.5 1.3 1.3 1.3h.6c.5 0 1 .4 1 1s-.3.8-.6.9c-.5.2-1 .3-1.7.3-1.8 0-3-.8-3-3.1zM113.293 22.679c0-3 2.4-5.5 5.6-5.5s5.6 2.4 5.6 5.5c0 3-2.4 5.5-5.6 5.5s-5.6-2.4-5.6-5.4zm8.8 0c0-1.9-1.3-3.4-3.2-3.4s-3.2 1.5-3.2 3.3c0 1.9 1.3 3.4 3.2 3.4s3.2-1.5 3.2-3.3M126.691 18.48c0-.7.6-1.2 1.3-1.2s1.2.5 1.2 1.2v1.1c.6-1.3 1.6-2.3 2.6-2.3s1.2.5 1.2 1.2-.4 1.1-1 1.2c-1.7.3-2.9 1.6-2.9 4.1v3.1c0 .7-.5 1.2-1.2 1.2s-1.2-.5-1.2-1.2v-8.4M141.59 22.079c-.2-1.6-1.1-2.8-2.7-2.8-1.5 0-2.7 1.3-2.7 2.8zm-7.7.8c-.1-2.9 2.1-5.4 5-5.5h.2c2.8 0 5 2.2 5 5v.2c0 .6-.5 1.1-1.1 1.1h-6.6c.1 1.5 1.4 2.7 3 2.7.9 0 1.8-.3 2.5-.9.2-.1.4-.2.6-.2.5 0 1 .4 1 1 0 .3-.1.5-.3.7-1 1-2.4 1.5-3.8 1.4-2.9.1-5.4-2.491-5.5-5.391v-.1M24.292 4.679s-12-6.6-22.1-3.4c0 0-.6 0-1.2.8s-1.2 1.3-.9 2c.3.6 1.8.9 3.2.6 0 0 .6-.4-.1-.7-.8-.3-1.2-.3-1.2-.3s-.4-.1 0-.3 5-1.5 13.1.8c8 2.3 18.8 9.2 18.3 15.9-.5 6.8-11.1 6.8-11.1 6.8s-2.2 0-5.1-.6c0-2.2 0-6 .1-8.3 2.6.2 7.9.7 8.6 1.9 0 0 .3.3-.8.9-.8.5-1.5.6-.8 1 0 0 1 .7 1.7.5.6-.2 2.4-.8 2.6-2.6s-2-3.6-5.1-4.2c-2.5-.5-3.8-.7-6-.7 0-2-.2-4.5-.6-5.2-.5-.8-1.1-1.9-1.6-.7-.5 1-.9 3.2-1 6.1-3.4.5-7.3 1.8-8.4 3.2-1.3 1.5 0 2.8 0 3 0 .1 2.5 3.8 7.8 6.4 0 1 .2 2 .6 2.6.8 1.3 2.3.4 2.5.2.2-.1.3-.5.4-1.5 2.4.7 6.7 1.5 11.4.2 7.1-1.9 8.2-6.3 8.5-8.9s-1.5-9.4-12.7-15.5zm-7.1 13.1c.4 0 .3 0 0 0m-10.8 2.6s-.8-.9.4-1.3c1.1-.4 3.3-1 7.2-1.2 0 1.2-.2 3.7-.5 7.3-2.5-.9-5.1-2.4-7.1-4.8M42.491 13.179c2.9-.9 5.7-3.6 5.8-5.8 0-2.2-2.4-2.3-2.4-2.3-.4-1.4-3-1.3-3-1.3-5.3.3-7.1 3.9-7.4 4.8-.2.8-.2 2.1.8 3-.3.8-.1 1.2 0 1.4 0 .3.5 1.1 1.1 1 .4 0 .7-.3 1.1-1.1 1 .5 2.3.7 4.1.2zm3.7-4.8c-1.6 3-4.8 3-6.7 2.6 1.2-1.8 3.9-3.9 5.5-4.2 1.9-.3 1.2 1.5 1.2 1.5zm-8.4-.3c.8-1.1 1.8-1.6 3.1-1.7-1.7 1.1-2.8 2.5-3.5 3.4-.2-.4-.2-.9.4-1.7M41.19 22.879s0-4.4-.1-5.3c0-.9-.3-1.4-.6-1.8s-.6-.9-1.3-.4c-.7.6-.8 4.2-1 7-.2 2.9 0 4.7.3 5.2.4.5 1.7.7 2.3.3s.4-4.7.4-4.7v-.4zM55.691 16.279c-.9-1.1-6-1-6-1-1.9 0-6.3.8-6.9 2.7s-.1 2.6-.1 2.6c.5 1 4.2 1 5.2 1.1 1 0 3.7.5 4.6 1s.3 1.3.3 1.3c-.9 1.3-5.8 1.4-5.8 1.4s-1.8 0-2.2-.4c-.5-.4-.6-.7 0-1.3.5-.6 1.8.1 1.8.1s1.1.8 2.5.9c1.5 0 2.5-.4 2.6-.9 0-.5-1.2-1-1.2-1-4.3-1.3-6.1-.3-6.1-.3-2.4 1.4-.7 3.5-.7 3.5 3.7 4.2 9.8 1.7 10.5 1.1s1-1.2 1.1-2.9c0-1.7-.6-2.5-.6-2.5-1.2-1.6-4.7-1.7-5.7-1.7s-2.9-.4-3.4-.5-.1-.5-.1-.5c.6-.5 5.3-.7 7.8-.8h1.4c.9-.3 1.1-.8 1.2-1.2.2-.4 0-.6 0-.6zM63.292 13.78s-.5-.3-.7.3 0 1.1 0 1.1c1.3 4.8 1.5 7.6 1.5 7.6v.9h-.3c-.1 0-1.6-2.7-1.6-2.7l-.3-.5c-1.7-2.8-2.6-3.8-2.6-3.8-.3-.2-.9-.9-1.7 0-.8.8-1.5 3.6-1.8 6.1-.3 2.6-.2 4.1.2 4.7s1.2.9 1.9.3c.7-.5.7-3.9.8-5.7.2-1.7.3-1.4.3-1.4.2 0 .9 1.6.9 1.6s2 4.3 3.3 5 2.4-.3 2.9-1.3c.4-.9 1.2-4.1.3-7.7-1-3.6-3.1-4.7-3.1-4.7zM76.691 26.479c.2-.6-.4-1.4-1-1.6-.5-.1-4.5.5-5 .6s-.3-.4-.3-.4l.7-2.1s3.8 0 4.3-.1c.5 0 .6-.4.6-.4v-1.2c0-.6-.5-.6-.5-.6-1.5-.2-3.5 0-3.5 0l.5-1.6h.2c1.9 0 4.6-.2 5.4-.4s.4-1 .4-1c-.9-1.9-2-1.9-2-1.9-3.3-.2-7.8.5-8.4.7-.5.2-.5.6.1 1.4s1.8.8 1.8.8l-1 2c-.8 0-1.1.3-1.1.3-.5.5 0 1.9 0 1.9s-.2.4-.4 1.1-.9 1.9 0 3.6c.9 1.8 2.3 1.7 2.3 1.7 2.5 0 6.5-2.2 6.7-3zM89.391 17.58c-1.3-.9-2.4 0-2.4 0-2.2 1.2-5 4.6-6.6 6.6-.2-1.5.8-3.3.8-3.3l.2-.4c1.2-2.1 1.4-2.3 1.7-2.8.2-.5.4-1.7.1-1.8s-.7.3-.7.3c-3.7 3.1-4.3 6.6-4.3 6.6-.4 1.8 0 3.2.4 4.1-2.1 4.3-2.9 8.5-2.9 10.1 0 1.7 1.3 2.9 2.1 3.2.7.3.8-.6.8-.6.7-4.4 1.8-7.4 3.1-10.4 3.7 1 6.7-2.9 7.7-4.3 1.1-1.6 1.1-3.9 1.1-3.9 0-.2.2-2.5-1.1-3.4m-2.7 7.1c-.4.4-1.9 1.1-3.3 1.3 1.5-2.7 3.2-4.6 4.2-5.6 1.2-1.2 1.3 0 1.3 0 .2 2.2-1.5 3.8-2.2 4.4z"/></g><defs><clipPath id="a"><path fill="#fff" d="M0 0h144v43H0z"/></clipPath></defs></svg>