<svg xmlns="http://www.w3.org/2000/svg" width="240" height="80" fill="none"><g clip-path="url(#a)"><path fill="url(#b)" d="M75.92 26.83c-1.68-4.05-5.1-8.43-7.78-9.81 1.91 3.7 3.23 7.66 3.93 11.76l.01.07C67.69 17.92 60.26 13.52 54.19 3.93c-.31-.49-.62-.98-.91-1.48-.15-.26-.29-.53-.43-.8-.25-.49-.45-1-.58-1.53 0-.05-.04-.09-.09-.1-.02-.02-.04-.02-.07-.01-.01 0-.01.01-.02.01s-.02.01-.03.02l.01-.03c-9.74 5.7-13.04 16.25-13.34 21.53-3.89.27-7.6 1.7-10.67 4.11-.32-.27-.65-.52-1-.76-.88-3.09-.92-6.36-.11-9.47a28.7 28.7 0 0 0-9.33 7.21h-.02c-1.54-1.95-1.43-8.37-1.34-9.71-.45.18-.89.41-1.29.69-1.36.97-2.62 2.05-3.79 3.24a33.4 33.4 0 0 0-3.62 4.35 32.7 32.7 0 0 0-5.2 11.74l-.04.26c-.14.8-.27 1.61-.38 2.42 0 .03-.01.06-.01.08-.34 1.76-.55 3.55-.63 5.34v.2c.02 21.41 17.39 38.74 38.79 38.73 18.85-.02 34.96-13.59 38.16-32.17.07-.5.12-.99.18-1.5.8-6.6-.07-13.29-2.51-19.47M31.25 57.17c.18.09.35.18.54.26l.03.02c-.2-.09-.39-.18-.57-.28"/><path fill="url(#c)" d="M75.92 26.83c-1.68-4.05-5.1-8.43-7.78-9.81 1.91 3.7 3.23 7.66 3.93 11.76v.04l.01.04a35.05 35.05 0 0 1-1.21 26.16c-4.44 9.53-15.19 19.3-32.02 18.83-18.19-.52-34.21-14.01-37.2-31.69-.55-2.79 0-4.2.27-6.47a29 29 0 0 0-.62 5.35v.2c.02 21.41 17.39 38.74 38.79 38.72 18.85-.02 34.96-13.59 38.16-32.17.07-.5.12-.99.18-1.5.8-6.59-.07-13.28-2.51-19.46"/><path fill="url(#d)" d="M75.92 26.83c-1.68-4.05-5.1-8.43-7.78-9.81 1.91 3.7 3.23 7.66 3.93 11.76v.04l.01.04a35.05 35.05 0 0 1-1.21 26.16c-4.44 9.53-15.19 19.3-32.02 18.83-18.19-.52-34.21-14.01-37.2-31.69-.55-2.79 0-4.2.27-6.47a29 29 0 0 0-.62 5.35v.2c.02 21.41 17.39 38.74 38.79 38.72 18.85-.02 34.96-13.59 38.16-32.17.07-.5.12-.99.18-1.5.8-6.59-.07-13.28-2.51-19.46"/><path fill="url(#e)" d="m57.08 31.39.24.18c-.97-1.73-2.19-3.31-3.6-4.69C41.68 14.82 50.57.75 52.06.03l.01-.02c-9.74 5.7-13.04 16.25-13.34 21.53.45-.03.9-.07 1.36-.07 7.04.01 13.53 3.8 16.99 9.92"/><path fill="url(#f)" d="M40.118 33.79c-.06.96-3.47 4.29-4.66 4.29-11.02 0-12.81 6.67-12.81 6.67.49 5.61 4.4 10.24 9.13 12.68.22.11.43.21.65.31.38.17.76.32 1.14.47 1.62.57 3.32.9 5.04.97 19.32.91 23.06-23.1 9.12-30.07 3.29-.43 6.62.38 9.35 2.27-3.47-6.12-9.95-9.9-16.98-9.92-.46 0-.91.04-1.36.07-3.89.27-7.6 1.7-10.67 4.11.59.5 1.26 1.17 2.66 2.55 2.63 2.6 9.38 5.29 9.39 5.6"/><path fill="url(#g)" d="M40.118 33.79c-.06.96-3.47 4.29-4.66 4.29-11.02 0-12.81 6.67-12.81 6.67.49 5.61 4.4 10.24 9.13 12.68.22.11.43.21.65.31.38.17.76.32 1.14.47 1.62.57 3.32.9 5.04.97 19.32.91 23.06-23.1 9.12-30.07 3.29-.43 6.62.38 9.35 2.27-3.47-6.12-9.95-9.9-16.98-9.92-.46 0-.91.04-1.36.07-3.89.27-7.6 1.7-10.67 4.11.59.5 1.26 1.17 2.66 2.55 2.63 2.6 9.38 5.29 9.39 5.6"/><path fill="url(#h)" d="M26.261 24.36c.31.2.57.37.8.53-.88-3.09-.92-6.36-.11-9.47a28.7 28.7 0 0 0-9.33 7.21c.2-.01 5.82-.11 8.64 1.73"/><path fill="url(#i)" d="M1.65 42.16c2.99 17.67 19.01 31.17 37.19 31.68 16.83.48 27.58-9.29 32.02-18.83a35.15 35.15 0 0 0 1.21-26.16v-.04c0-.03-.01-.05 0-.04l.01.07c1.38 8.98-3.19 17.67-10.33 23.55l-.02.05c-13.91 11.33-27.22 6.83-29.91 5-.19-.09-.38-.18-.56-.28-8.11-3.88-11.46-11.26-10.74-17.6a9.96 9.96 0 0 1-9.18-5.78c4.33-2.65 9.72-2.87 14.25-.57 4.59 2.08 9.81 2.29 14.55.57-.01-.31-6.76-3-9.39-5.59-1.41-1.39-2.07-2.05-2.66-2.55-.32-.27-.65-.52-1-.76-.23-.16-.49-.33-.8-.53-2.83-1.84-8.45-1.74-8.64-1.73h-.02c-1.54-1.95-1.43-8.37-1.34-9.71-.45.18-.89.41-1.29.69-1.36.97-2.62 2.05-3.79 3.25a33.6 33.6 0 0 0-3.64 4.34v.01a32.7 32.7 0 0 0-5.2 11.74c-.02.08-1.39 6.1-.72 9.22"/><path fill="url(#j)" d="M53.72 26.87c1.41 1.39 2.63 2.97 3.6 4.7.21.16.41.32.58.48 8.79 8.1 4.18 19.55 3.84 20.37 7.14-5.88 11.7-14.58 10.33-23.56-4.38-10.94-11.81-15.34-17.88-24.93-.31-.49-.62-.98-.91-1.48-.15-.26-.29-.53-.43-.8-.25-.49-.45-1-.58-1.53 0-.05-.04-.09-.09-.1-.02-.02-.04-.02-.07-.01-.01 0-.01.01-.02.01s-.02.01-.03.02c-1.49.71-10.38 14.78 1.66 26.83"/><path fill="url(#k)" d="M57.901 32.04c-.19-.17-.38-.33-.58-.48l-.24-.18c-2.73-1.89-6.06-2.7-9.35-2.27 13.94 6.97 10.2 30.97-9.12 30.07-1.72-.07-3.42-.4-5.04-.97-.38-.14-.76-.3-1.14-.47-.22-.1-.44-.2-.65-.31l.03.02c2.69 1.84 16 6.33 29.91-5l.02-.05c.35-.81 4.95-12.26-3.84-20.36"/><path fill="url(#l)" d="M22.65 44.75s1.79-6.67 12.81-6.67c1.19 0 4.6-3.33 4.66-4.29a19.3 19.3 0 0 1-14.55-.57c-4.53-2.3-9.92-2.08-14.25.57a9.97 9.97 0 0 0 9.18 5.78c-.72 6.34 2.63 13.72 10.74 17.6.18.09.35.18.54.26-4.73-2.44-8.64-7.07-9.13-12.68"/><path fill="url(#m)" d="M75.92 26.83c-1.68-4.05-5.1-8.43-7.78-9.81 1.91 3.7 3.23 7.66 3.93 11.76l.01.07C67.69 17.92 60.26 13.52 54.19 3.93c-.31-.49-.62-.98-.91-1.48-.15-.26-.29-.53-.43-.8-.25-.49-.45-1-.58-1.53 0-.05-.04-.09-.09-.1-.02-.02-.04-.02-.07-.01-.01 0-.01.01-.02.01s-.02.01-.03.02l.01-.03c-9.74 5.7-13.04 16.25-13.34 21.53.45-.03.9-.07 1.36-.07 7.03.01 13.52 3.8 16.98 9.92-2.73-1.89-6.06-2.7-9.35-2.27 13.94 6.97 10.2 30.97-9.12 30.07-1.72-.07-3.42-.4-5.04-.97-.38-.14-.76-.3-1.14-.47-.22-.1-.44-.2-.65-.31l.03.02c-.19-.09-.38-.18-.56-.28.18.09.35.18.54.26-4.73-2.45-8.64-7.07-9.13-12.68 0 0 1.79-6.67 12.81-6.67 1.19 0 4.6-3.33 4.66-4.29-.01-.31-6.76-3-9.39-5.59-1.41-1.39-2.07-2.05-2.66-2.55-.32-.27-.65-.52-1-.76-.88-3.09-.92-6.36-.11-9.47a28.7 28.7 0 0 0-9.33 7.21h-.02c-1.54-1.95-1.43-8.37-1.34-9.71-.45.18-.89.41-1.29.69-1.36.97-2.62 2.05-3.79 3.24a33.4 33.4 0 0 0-3.62 4.35v.01-.02a32.7 32.7 0 0 0-5.2 11.74l-.05.26c-.07.34-.4 2.07-.45 2.44 0 .03 0-.03 0 0q-.45 2.685-.57 5.4v.2c.02 21.41 17.39 38.74 38.79 38.73 18.85-.02 34.96-13.59 38.16-32.17.07-.5.12-.99.18-1.5.8-6.6-.07-13.29-2.51-19.47"/><path fill="#20123A" d="M96.969 23.99h21.43v5.8h-15.28v7.86h15.28v5.75h-15.28v12.64h-6.15zm28.72-2.24a3.45 3.45 0 0 1 3.56 3.33v.27c0 1.98-1.6 3.58-3.58 3.58-1.94 0-3.54-1.55-3.58-3.49a3.57 3.57 0 0 1 3.42-3.69zm-3.03 10.58h6.06v23.71h-6.06zm23.62 6.59a4.9 4.9 0 0 0-2.94-1.05c-2.46 0-3.86 1.58-3.86 5.05v13.13h-6.01V32.33h5.75v3.42a5.64 5.64 0 0 1 5.66-3.64c1.44 0 2.85.42 4.04 1.23zm2.5 5.4c-.19-6.7 5.09-12.28 11.78-12.47.14 0 .28-.01.42 0 7.11 0 12.16 5.05 12.16 12.08v2.5h-18.44c.66 2.99 2.99 4.96 6.54 4.96a6.33 6.33 0 0 0 5.88-3.51l5.05 3.03c-2.5 3.69-6.06 5.62-11.11 5.62-7.67-.01-12.28-5.14-12.28-12.21m6.02-2.68h12.47c-.66-3.03-3.12-4.7-6.32-4.7a6.09 6.09 0 0 0-6.15 4.7m19.84-9.31h4.26v-1.18c0-6.45 2.72-9.13 8.69-9.13h2.11v5.23h-1.71c-2.81 0-3.43.97-3.43 3.91v1.19h5.14v5.44h-5v18.27h-5.8V37.77h-4.26zm16.2 11.85c-.11-6.7 5.23-12.23 11.94-12.34h.45c6.81-.06 12.39 5.41 12.45 12.23s-5.41 12.39-12.23 12.45h-.22c-6.6.24-12.14-4.92-12.38-11.52-.01-.27-.01-.54-.01-.82m18.88 0a6.5 6.5 0 1 0-13 0 6.5 6.5 0 0 0 13 0m14.05-.26-8.56-11.59h7.11l5.05 7.29 5.18-7.29h6.98l-8.69 11.55 9.13 12.16h-7.07l-5.66-7.73-5.49 7.73h-7.06z"/></g><defs><radialGradient id="c" cx="0" cy="0" r="1" gradientTransform="translate(67.814 8.878)scale(80.797)" gradientUnits="userSpaceOnUse"><stop offset=".129" stop-color="#FFBD4F"/><stop offset=".186" stop-color="#FFAC31"/><stop offset=".247" stop-color="#FF9D17"/><stop offset=".283" stop-color="#FF980E"/><stop offset=".403" stop-color="#FF563B"/><stop offset=".467" stop-color="#FF3750"/><stop offset=".71" stop-color="#F5156C"/><stop offset=".782" stop-color="#EB0878"/><stop offset=".86" stop-color="#E50080"/></radialGradient><radialGradient id="d" cx="0" cy="0" r="1" gradientTransform="translate(38.29 41.91)scale(80.797)" gradientUnits="userSpaceOnUse"><stop offset=".3" stop-color="#960E18"/><stop offset=".351" stop-color="#B11927" stop-opacity=".74"/><stop offset=".435" stop-color="#DB293D" stop-opacity=".343"/><stop offset=".497" stop-color="#F5334B" stop-opacity=".094"/><stop offset=".53" stop-color="#FF3750" stop-opacity="0"/></radialGradient><radialGradient id="e" cx="0" cy="0" r="1" gradientTransform="translate(48.03 -9.457)scale(58.5318)" gradientUnits="userSpaceOnUse"><stop offset=".132" stop-color="#FFF44F"/><stop offset=".252" stop-color="#FFDC3E"/><stop offset=".506" stop-color="#FF9D12"/><stop offset=".526" stop-color="#FF980E"/></radialGradient><radialGradient id="f" cx="0" cy="0" r="1" gradientTransform="translate(29.35 63.016)scale(38.471)" gradientUnits="userSpaceOnUse"><stop offset=".353" stop-color="#3A8EE6"/><stop offset=".472" stop-color="#5C79F0"/><stop offset=".669" stop-color="#9059FF"/><stop offset="1" stop-color="#C139E6"/></radialGradient><radialGradient id="g" cx="0" cy="0" r="1" gradientTransform="matrix(19.8259 -4.7933 -5.60918 -23.2118 42.702 35.29)" gradientUnits="userSpaceOnUse"><stop offset=".206" stop-color="#9059FF" stop-opacity="0"/><stop offset=".278" stop-color="#8C4FF3" stop-opacity=".064"/><stop offset=".747" stop-color="#7716A8" stop-opacity=".45"/><stop offset=".975" stop-color="#6E008B" stop-opacity=".6"/></radialGradient><radialGradient id="h" cx="0" cy="0" r="1" gradientTransform="translate(37.27 5.573)scale(27.676)" gradientUnits="userSpaceOnUse"><stop stop-color="#FFE226"/><stop offset=".121" stop-color="#FFDB27"/><stop offset=".295" stop-color="#FFC82A"/><stop offset=".502" stop-color="#FFA930"/><stop offset=".732" stop-color="#FF7E37"/><stop offset=".792" stop-color="#FF7139"/></radialGradient><radialGradient id="i" cx="0" cy="0" r="1" gradientTransform="translate(59.022 -11.981)scale(118.081)" gradientUnits="userSpaceOnUse"><stop offset=".113" stop-color="#FFF44F"/><stop offset=".456" stop-color="#FF980E"/><stop offset=".622" stop-color="#FF5634"/><stop offset=".716" stop-color="#FF3647"/><stop offset=".904" stop-color="#E31587"/></radialGradient><radialGradient id="j" cx="0" cy="0" r="1" gradientTransform="matrix(9.08239 86.0665 56.4838 -5.96843 49.072 -5.415)" gradientUnits="userSpaceOnUse"><stop stop-color="#FFF44F"/><stop offset=".06" stop-color="#FFE847"/><stop offset=".168" stop-color="#FFC830"/><stop offset=".304" stop-color="#FF980E"/><stop offset=".356" stop-color="#FF8B16"/><stop offset=".455" stop-color="#FF672A"/><stop offset=".57" stop-color="#FF3647"/><stop offset=".737" stop-color="#E31587"/></radialGradient><radialGradient id="k" cx="0" cy="0" r="1" gradientTransform="translate(36.618 15.824)scale(73.72)" gradientUnits="userSpaceOnUse"><stop offset=".137" stop-color="#FFF44F"/><stop offset=".48" stop-color="#FF980E"/><stop offset=".592" stop-color="#FF5634"/><stop offset=".655" stop-color="#FF3647"/><stop offset=".904" stop-color="#E31587"/></radialGradient><radialGradient id="l" cx="0" cy="0" r="1" gradientTransform="translate(56.077 20.139)scale(80.686)" gradientUnits="userSpaceOnUse"><stop offset=".094" stop-color="#FFF44F"/><stop offset=".231" stop-color="#FFE141"/><stop offset=".509" stop-color="#FFAF1E"/><stop offset=".626" stop-color="#FF980E"/></radialGradient><linearGradient id="b" x1="70.782" x2="6.443" y1="12.388" y2="74.463" gradientUnits="userSpaceOnUse"><stop offset=".048" stop-color="#FFF44F"/><stop offset=".111" stop-color="#FFE847"/><stop offset=".225" stop-color="#FFC830"/><stop offset=".368" stop-color="#FF980E"/><stop offset=".401" stop-color="#FF8B16"/><stop offset=".462" stop-color="#FF672A"/><stop offset=".534" stop-color="#FF3647"/><stop offset=".705" stop-color="#E31587"/></linearGradient><linearGradient id="m" x1="70.01" x2="15.264" y1="12.057" y2="66.802" gradientUnits="userSpaceOnUse"><stop offset=".167" stop-color="#FFF44F" stop-opacity=".8"/><stop offset=".266" stop-color="#FFF44F" stop-opacity=".634"/><stop offset=".489" stop-color="#FFF44F" stop-opacity=".217"/><stop offset=".6" stop-color="#FFF44F" stop-opacity="0"/></linearGradient><clipPath id="a"><path fill="#fff" d="M0 0h240v80H0z"/></clipPath></defs></svg>