<svg width="240" height="80" viewBox="0 0 240 80" fill="none" xmlns="http://www.w3.org/2000/svg">
<g clip-path="url(#clip0_992_192)">
<path d="M75.9208 26.8305C74.2408 22.7805 70.8208 18.4005 68.1408 17.0205C70.0508 20.7205 71.3708 24.6805 72.0708 28.7805L72.0808 28.8505C67.6908 17.9205 60.2608 13.5205 54.1908 3.93047C53.8808 3.44047 53.5708 2.95047 53.2808 2.45047C53.1308 2.19047 52.9908 1.92047 52.8508 1.65047C52.6008 1.16047 52.4008 0.650475 52.2708 0.120475C52.2708 0.0704748 52.2308 0.0304748 52.1808 0.0204748C52.1608 0.000474792 52.1408 0.000474792 52.1108 0.0104748C52.1008 0.0104748 52.1008 0.0204748 52.0908 0.0204748C52.0808 0.0204748 52.0708 0.0304748 52.0608 0.0404748L52.0708 0.0104748C42.3308 5.71047 39.0308 16.2605 38.7308 21.5405C34.8408 21.8105 31.1308 23.2405 28.0608 25.6505C27.7408 25.3805 27.4108 25.1305 27.0608 24.8905C26.1808 21.8005 26.1408 18.5305 26.9508 15.4205C23.3708 17.1505 20.2008 19.6105 17.6208 22.6305H17.6008C16.0608 20.6805 16.1708 14.2605 16.2608 12.9205C15.8108 13.1005 15.3708 13.3305 14.9708 13.6105C13.6108 14.5805 12.3508 15.6605 11.1808 16.8505C9.85078 18.2005 8.64078 19.6505 7.56078 21.2005C5.07078 24.7305 3.30078 28.7205 2.36078 32.9405L2.32078 33.2005C2.18078 34.0005 2.05078 34.8105 1.94078 35.6205C1.94078 35.6505 1.93078 35.6805 1.93078 35.7005C1.59078 37.4605 1.38078 39.2505 1.30078 41.0405V41.2405C1.32078 62.6505 18.6908 79.9805 40.0908 79.9705C58.9408 79.9505 75.0508 66.3805 78.2508 47.8005C78.3208 47.3005 78.3708 46.8105 78.4308 46.3005C79.2308 39.7005 78.3608 33.0105 75.9208 26.8305ZM31.2508 57.1705C31.4308 57.2605 31.6008 57.3505 31.7908 57.4305L31.8208 57.4505C31.6208 57.3605 31.4308 57.2705 31.2508 57.1705Z" fill="url(#paint0_linear_992_192)"/>
<path d="M75.9208 26.8295C74.2408 22.7795 70.8208 18.3995 68.1408 17.0195C70.0508 20.7195 71.3708 24.6795 72.0708 28.7795V28.8195L72.0808 28.8595C75.0708 37.4095 74.6408 46.7795 70.8708 55.0195C66.4308 64.5495 55.6808 74.3195 38.8508 73.8495C20.6608 73.3295 4.64078 59.8395 1.65078 42.1595C1.10078 39.3695 1.65078 37.9595 1.92078 35.6895C1.55078 37.4495 1.34078 39.2395 1.30078 41.0395V41.2395C1.32078 62.6495 18.6908 79.9795 40.0908 79.9595C58.9408 79.9395 75.0508 66.3695 78.2508 47.7895C78.3208 47.2895 78.3708 46.7995 78.4308 46.2895C79.2308 39.6995 78.3608 33.0095 75.9208 26.8295Z" fill="url(#paint1_radial_992_192)"/>
<path d="M75.9208 26.8295C74.2408 22.7795 70.8208 18.3995 68.1408 17.0195C70.0508 20.7195 71.3708 24.6795 72.0708 28.7795V28.8195L72.0808 28.8595C75.0708 37.4095 74.6408 46.7795 70.8708 55.0195C66.4308 64.5495 55.6808 74.3195 38.8508 73.8495C20.6608 73.3295 4.64078 59.8395 1.65078 42.1595C1.10078 39.3695 1.65078 37.9595 1.92078 35.6895C1.55078 37.4495 1.34078 39.2395 1.30078 41.0395V41.2395C1.32078 62.6495 18.6908 79.9795 40.0908 79.9595C58.9408 79.9395 75.0508 66.3695 78.2508 47.7895C78.3208 47.2895 78.3708 46.7995 78.4308 46.2895C79.2308 39.6995 78.3608 33.0095 75.9208 26.8295Z" fill="url(#paint2_radial_992_192)"/>
<path d="M57.0805 31.3898L57.3205 31.5698C56.3505 29.8398 55.1305 28.2598 53.7205 26.8798C41.6805 14.8198 50.5705 0.749766 52.0605 0.0297656L52.0705 0.00976562C42.3305 5.70977 39.0305 16.2598 38.7305 21.5398C39.1805 21.5098 39.6305 21.4698 40.0905 21.4698C47.1305 21.4798 53.6205 25.2698 57.0805 31.3898Z" fill="url(#paint3_radial_992_192)"/>
<path d="M40.1184 33.79C40.0584 34.75 36.6484 38.08 35.4584 38.08C24.4384 38.08 22.6484 44.75 22.6484 44.75C23.1384 50.36 27.0484 54.99 31.7784 57.43C31.9984 57.54 32.2084 57.64 32.4284 57.74C32.8084 57.91 33.1884 58.06 33.5684 58.21C35.1884 58.78 36.8884 59.11 38.6084 59.18C57.9284 60.09 61.6684 36.08 47.7284 29.11C51.0184 28.68 54.3484 29.49 57.0784 31.38C53.6084 25.26 47.1284 21.48 40.0984 21.46C39.6384 21.46 39.1884 21.5 38.7384 21.53C34.8484 21.8 31.1384 23.23 28.0684 25.64C28.6584 26.14 29.3284 26.81 30.7284 28.19C33.3584 30.79 40.1084 33.48 40.1184 33.79Z" fill="url(#paint4_radial_992_192)"/>
<path d="M40.1184 33.79C40.0584 34.75 36.6484 38.08 35.4584 38.08C24.4384 38.08 22.6484 44.75 22.6484 44.75C23.1384 50.36 27.0484 54.99 31.7784 57.43C31.9984 57.54 32.2084 57.64 32.4284 57.74C32.8084 57.91 33.1884 58.06 33.5684 58.21C35.1884 58.78 36.8884 59.11 38.6084 59.18C57.9284 60.09 61.6684 36.08 47.7284 29.11C51.0184 28.68 54.3484 29.49 57.0784 31.38C53.6084 25.26 47.1284 21.48 40.0984 21.46C39.6384 21.46 39.1884 21.5 38.7384 21.53C34.8484 21.8 31.1384 23.23 28.0684 25.64C28.6584 26.14 29.3284 26.81 30.7284 28.19C33.3584 30.79 40.1084 33.48 40.1184 33.79Z" fill="url(#paint5_radial_992_192)"/>
<path d="M26.2611 24.3599C26.5711 24.5599 26.8311 24.7299 27.0611 24.8899C26.1811 21.7999 26.1411 18.5299 26.9511 15.4199C23.3711 17.1499 20.2011 19.6099 17.6211 22.6299C17.8211 22.6199 23.4411 22.5199 26.2611 24.3599Z" fill="url(#paint6_radial_992_192)"/>
<path d="M1.64922 42.1602C4.63922 59.8302 20.6592 73.3302 38.8392 73.8402C55.6692 74.3202 66.4192 64.5502 70.8592 55.0102C74.6192 46.7702 75.0492 37.4002 72.0692 28.8502V28.8102C72.0692 28.7802 72.0592 28.7602 72.0692 28.7702L72.0792 28.8402C73.4592 37.8202 68.8892 46.5102 61.7492 52.3902L61.7292 52.4402C47.8192 63.7702 34.5092 59.2702 31.8192 57.4402C31.6292 57.3502 31.4392 57.2602 31.2592 57.1602C23.1492 53.2802 19.7992 45.9002 20.5192 39.5602C16.5892 39.6202 12.9892 37.3502 11.3392 33.7802C15.6692 31.1302 21.0592 30.9102 25.5892 33.2102C30.1792 35.2902 35.3992 35.5002 40.1392 33.7802C40.1292 33.4702 33.3792 30.7802 30.7492 28.1902C29.3392 26.8002 28.6792 26.1402 28.0892 25.6402C27.7692 25.3702 27.4392 25.1202 27.0892 24.8802C26.8592 24.7202 26.5992 24.5502 26.2892 24.3502C23.4592 22.5102 17.8392 22.6102 17.6492 22.6202H17.6292C16.0892 20.6702 16.1992 14.2502 16.2892 12.9102C15.8392 13.0902 15.3992 13.3202 14.9992 13.6002C13.6392 14.5702 12.3792 15.6502 11.2092 16.8502C9.87922 18.1902 8.65922 19.6402 7.56922 21.1902V21.2002C5.07922 24.7302 3.30922 28.7202 2.36922 32.9402C2.34922 33.0202 0.979223 39.0402 1.64922 42.1602Z" fill="url(#paint7_radial_992_192)"/>
<path d="M53.7209 26.8705C55.1309 28.2605 56.3509 29.8405 57.3209 31.5705C57.5309 31.7305 57.7309 31.8905 57.9009 32.0505C66.6909 40.1505 62.0809 51.6005 61.7409 52.4205C68.8809 46.5405 73.4409 37.8405 72.0709 28.8605C67.6909 17.9205 60.2609 13.5205 54.1909 3.93047C53.8809 3.44047 53.5709 2.95047 53.2809 2.45047C53.1309 2.19047 52.9909 1.92047 52.8509 1.65047C52.6009 1.16047 52.4009 0.650475 52.2709 0.120475C52.2709 0.0704748 52.2309 0.0304748 52.1809 0.0204748C52.1609 0.000474792 52.1409 0.000474792 52.1109 0.0104748C52.1009 0.0104748 52.1009 0.0204748 52.0909 0.0204748C52.0809 0.0204748 52.0709 0.0304748 52.0609 0.0404748C50.5709 0.750475 41.6809 14.8205 53.7209 26.8705Z" fill="url(#paint8_radial_992_192)"/>
<path d="M57.9013 32.0398C57.7113 31.8698 57.5212 31.7098 57.3212 31.5598L57.0813 31.3798C54.3513 29.4898 51.0212 28.6798 47.7312 29.1098C61.6712 36.0798 57.9312 60.0798 38.6112 59.1798C36.8912 59.1098 35.1912 58.7798 33.5712 58.2098C33.1912 58.0698 32.8112 57.9098 32.4312 57.7398C32.2112 57.6398 31.9912 57.5398 31.7812 57.4298L31.8112 57.4498C34.5012 59.2898 47.8113 63.7798 61.7213 52.4498L61.7413 52.3998C62.0913 51.5898 66.6913 40.1398 57.9013 32.0398Z" fill="url(#paint9_radial_992_192)"/>
<path d="M22.6503 44.7498C22.6503 44.7498 24.4403 38.0798 35.4603 38.0798C36.6503 38.0798 40.0603 34.7498 40.1203 33.7898C35.3803 35.5098 30.1603 35.2998 25.5703 33.2198C21.0403 30.9198 15.6503 31.1398 11.3203 33.7898C12.9703 37.3598 16.5703 39.6198 20.5003 39.5698C19.7803 45.9098 23.1303 53.2898 31.2403 57.1698C31.4203 57.2598 31.5903 57.3498 31.7803 57.4298C27.0503 54.9898 23.1403 50.3598 22.6503 44.7498Z" fill="url(#paint10_radial_992_192)"/>
<path d="M75.9208 26.8305C74.2408 22.7805 70.8208 18.4005 68.1408 17.0205C70.0508 20.7205 71.3708 24.6805 72.0708 28.7805L72.0808 28.8505C67.6908 17.9205 60.2608 13.5205 54.1908 3.93047C53.8808 3.44047 53.5708 2.95047 53.2808 2.45047C53.1308 2.19047 52.9908 1.92047 52.8508 1.65047C52.6008 1.16047 52.4008 0.650475 52.2708 0.120475C52.2708 0.0704748 52.2308 0.0304748 52.1808 0.0204748C52.1608 0.000474792 52.1408 0.000474792 52.1108 0.0104748C52.1008 0.0104748 52.1008 0.0204748 52.0908 0.0204748C52.0808 0.0204748 52.0708 0.0304748 52.0608 0.0404748L52.0708 0.0104748C42.3308 5.71047 39.0308 16.2605 38.7308 21.5405C39.1808 21.5105 39.6308 21.4705 40.0908 21.4705C47.1208 21.4805 53.6108 25.2705 57.0708 31.3905C54.3408 29.5005 51.0108 28.6905 47.7208 29.1205C61.6608 36.0905 57.9208 60.0905 38.6008 59.1905C36.8808 59.1205 35.1808 58.7905 33.5608 58.2205C33.1808 58.0805 32.8008 57.9205 32.4208 57.7505C32.2008 57.6505 31.9808 57.5505 31.7708 57.4405L31.8008 57.4605C31.6108 57.3705 31.4208 57.2805 31.2408 57.1805C31.4208 57.2705 31.5908 57.3605 31.7808 57.4405C27.0508 54.9905 23.1408 50.3705 22.6508 44.7605C22.6508 44.7605 24.4408 38.0905 35.4608 38.0905C36.6508 38.0905 40.0608 34.7605 40.1208 33.8005C40.1108 33.4905 33.3608 30.8005 30.7308 28.2105C29.3208 26.8205 28.6608 26.1605 28.0708 25.6605C27.7508 25.3905 27.4208 25.1405 27.0708 24.9005C26.1908 21.8105 26.1508 18.5405 26.9608 15.4305C23.3808 17.1605 20.2108 19.6205 17.6308 22.6405H17.6108C16.0708 20.6905 16.1808 14.2705 16.2708 12.9305C15.8208 13.1105 15.3808 13.3405 14.9808 13.6205C13.6208 14.5905 12.3608 15.6705 11.1908 16.8605C9.86078 18.2105 8.65078 19.6605 7.57078 21.2105V21.2205V21.2005C5.08078 24.7305 3.31078 28.7205 2.37078 32.9405L2.32078 33.2005C2.25078 33.5405 1.92078 35.2705 1.87078 35.6405C1.87078 35.6705 1.87078 35.6105 1.87078 35.6405C1.57078 37.4305 1.38078 39.2305 1.30078 41.0405V41.2405C1.32078 62.6505 18.6908 79.9805 40.0908 79.9705C58.9408 79.9505 75.0508 66.3805 78.2508 47.8005C78.3208 47.3005 78.3708 46.8105 78.4308 46.3005C79.2308 39.7005 78.3608 33.0105 75.9208 26.8305Z" fill="url(#paint11_linear_992_192)"/>
<path d="M96.9688 23.9898H118.399V29.7898H103.119V37.6498H118.399V43.3998H103.119V56.0398H96.9688V23.9898ZM125.689 21.7498C127.589 21.6898 129.189 23.1798 129.249 25.0798V25.3498C129.249 27.3298 127.649 28.9298 125.669 28.9298C123.729 28.9298 122.129 27.3798 122.089 25.4398C122.019 23.4798 123.549 21.8298 125.509 21.7498H125.689ZM122.659 32.3298H128.719V56.0398H122.659V32.3298ZM146.279 38.9198C145.439 38.2598 144.409 37.8898 143.339 37.8698C140.879 37.8698 139.479 39.4498 139.479 42.9198V56.0498H133.469V32.3298H139.219V35.7498C140.099 33.4198 142.399 31.9398 144.879 32.1098C146.319 32.1098 147.729 32.5298 148.919 33.3398L146.279 38.9198ZM148.779 44.3198C148.589 37.6198 153.869 32.0398 160.559 31.8498C160.699 31.8498 160.839 31.8398 160.979 31.8498C168.089 31.8498 173.139 36.8998 173.139 43.9298V46.4298H154.699C155.359 49.4198 157.689 51.3898 161.239 51.3898C163.719 51.4698 166.019 50.0998 167.119 47.8798L172.169 50.9098C169.669 54.5998 166.109 56.5298 161.059 56.5298C153.389 56.5198 148.779 51.3898 148.779 44.3198ZM154.799 41.6398H167.269C166.609 38.6098 164.149 36.9398 160.949 36.9398C158.039 36.8398 155.459 38.7998 154.799 41.6398ZM174.639 32.3298H178.899V31.1498C178.899 24.6998 181.619 22.0198 187.589 22.0198H189.699V27.2498H187.989C185.179 27.2498 184.559 28.2198 184.559 31.1598V32.3498H189.699V37.7898H184.699V56.0598H178.899V37.7698H174.639V32.3298ZM190.839 44.1798C190.729 37.4798 196.069 31.9498 202.779 31.8398H203.229C210.039 31.7798 215.619 37.2498 215.679 44.0698C215.739 50.8898 210.269 56.4598 203.449 56.5198H203.229C196.629 56.7598 191.089 51.5998 190.849 44.9998C190.839 44.7298 190.839 44.4598 190.839 44.1798ZM209.719 44.1798C209.719 40.5898 206.809 37.6798 203.219 37.6798C199.629 37.6798 196.719 40.5898 196.719 44.1798C196.719 47.7698 199.629 50.6798 203.219 50.6798C206.809 50.6798 209.719 47.7698 209.719 44.1798ZM223.769 43.9198L215.209 32.3298H222.319L227.369 39.6198L232.549 32.3298H239.529L230.839 43.8798L239.969 56.0398H232.899L227.239 48.3098L221.749 56.0398H214.689L223.769 43.9198Z" fill="#20123A"/>
</g>
<defs>
<linearGradient id="paint0_linear_992_192" x1="70.7817" y1="12.3882" x2="6.44268" y2="74.4632" gradientUnits="userSpaceOnUse">
<stop offset="0.048" stop-color="#FFF44F"/>
<stop offset="0.111" stop-color="#FFE847"/>
<stop offset="0.225" stop-color="#FFC830"/>
<stop offset="0.368" stop-color="#FF980E"/>
<stop offset="0.401" stop-color="#FF8B16"/>
<stop offset="0.462" stop-color="#FF672A"/>
<stop offset="0.534" stop-color="#FF3647"/>
<stop offset="0.705" stop-color="#E31587"/>
</linearGradient>
<radialGradient id="paint1_radial_992_192" cx="0" cy="0" r="1" gradientUnits="userSpaceOnUse" gradientTransform="translate(67.8138 8.87843) scale(80.797 80.797)">
<stop offset="0.129" stop-color="#FFBD4F"/>
<stop offset="0.186" stop-color="#FFAC31"/>
<stop offset="0.247" stop-color="#FF9D17"/>
<stop offset="0.283" stop-color="#FF980E"/>
<stop offset="0.403" stop-color="#FF563B"/>
<stop offset="0.467" stop-color="#FF3750"/>
<stop offset="0.71" stop-color="#F5156C"/>
<stop offset="0.782" stop-color="#EB0878"/>
<stop offset="0.86" stop-color="#E50080"/>
</radialGradient>
<radialGradient id="paint2_radial_992_192" cx="0" cy="0" r="1" gradientUnits="userSpaceOnUse" gradientTransform="translate(38.2899 41.9106) scale(80.797 80.797)">
<stop offset="0.3" stop-color="#960E18"/>
<stop offset="0.351" stop-color="#B11927" stop-opacity="0.74"/>
<stop offset="0.435" stop-color="#DB293D" stop-opacity="0.343"/>
<stop offset="0.497" stop-color="#F5334B" stop-opacity="0.094"/>
<stop offset="0.53" stop-color="#FF3750" stop-opacity="0"/>
</radialGradient>
<radialGradient id="paint3_radial_992_192" cx="0" cy="0" r="1" gradientUnits="userSpaceOnUse" gradientTransform="translate(48.0308 -9.45723) scale(58.5318 58.5318)">
<stop offset="0.132" stop-color="#FFF44F"/>
<stop offset="0.252" stop-color="#FFDC3E"/>
<stop offset="0.506" stop-color="#FF9D12"/>
<stop offset="0.526" stop-color="#FF980E"/>
</radialGradient>
<radialGradient id="paint4_radial_992_192" cx="0" cy="0" r="1" gradientUnits="userSpaceOnUse" gradientTransform="translate(29.3505 63.0156) scale(38.471 38.471)">
<stop offset="0.353" stop-color="#3A8EE6"/>
<stop offset="0.472" stop-color="#5C79F0"/>
<stop offset="0.669" stop-color="#9059FF"/>
<stop offset="1" stop-color="#C139E6"/>
</radialGradient>
<radialGradient id="paint5_radial_992_192" cx="0" cy="0" r="1" gradientTransform="matrix(19.8259 -4.7933 -5.60918 -23.2118 42.7024 35.2894)" gradientUnits="userSpaceOnUse">
<stop offset="0.206" stop-color="#9059FF" stop-opacity="0"/>
<stop offset="0.278" stop-color="#8C4FF3" stop-opacity="0.064"/>
<stop offset="0.747" stop-color="#7716A8" stop-opacity="0.45"/>
<stop offset="0.975" stop-color="#6E008B" stop-opacity="0.6"/>
</radialGradient>
<radialGradient id="paint6_radial_992_192" cx="0" cy="0" r="1" gradientUnits="userSpaceOnUse" gradientTransform="translate(37.2701 5.57312) scale(27.676 27.676)">
<stop stop-color="#FFE226"/>
<stop offset="0.121" stop-color="#FFDB27"/>
<stop offset="0.295" stop-color="#FFC82A"/>
<stop offset="0.502" stop-color="#FFA930"/>
<stop offset="0.732" stop-color="#FF7E37"/>
<stop offset="0.792" stop-color="#FF7139"/>
</radialGradient>
<radialGradient id="paint7_radial_992_192" cx="0" cy="0" r="1" gradientUnits="userSpaceOnUse" gradientTransform="translate(59.0221 -11.9812) scale(118.081 118.081)">
<stop offset="0.113" stop-color="#FFF44F"/>
<stop offset="0.456" stop-color="#FF980E"/>
<stop offset="0.622" stop-color="#FF5634"/>
<stop offset="0.716" stop-color="#FF3647"/>
<stop offset="0.904" stop-color="#E31587"/>
</radialGradient>
<radialGradient id="paint8_radial_992_192" cx="0" cy="0" r="1" gradientTransform="matrix(9.08239 86.0665 56.4838 -5.96843 49.0717 -5.41484)" gradientUnits="userSpaceOnUse">
<stop stop-color="#FFF44F"/>
<stop offset="0.06" stop-color="#FFE847"/>
<stop offset="0.168" stop-color="#FFC830"/>
<stop offset="0.304" stop-color="#FF980E"/>
<stop offset="0.356" stop-color="#FF8B16"/>
<stop offset="0.455" stop-color="#FF672A"/>
<stop offset="0.57" stop-color="#FF3647"/>
<stop offset="0.737" stop-color="#E31587"/>
</radialGradient>
<radialGradient id="paint9_radial_992_192" cx="0" cy="0" r="1" gradientUnits="userSpaceOnUse" gradientTransform="translate(36.6184 15.824) scale(73.72 73.72)">
<stop offset="0.137" stop-color="#FFF44F"/>
<stop offset="0.48" stop-color="#FF980E"/>
<stop offset="0.592" stop-color="#FF5634"/>
<stop offset="0.655" stop-color="#FF3647"/>
<stop offset="0.904" stop-color="#E31587"/>
</radialGradient>
<radialGradient id="paint10_radial_992_192" cx="0" cy="0" r="1" gradientUnits="userSpaceOnUse" gradientTransform="translate(56.0774 20.1385) scale(80.686 80.686)">
<stop offset="0.094" stop-color="#FFF44F"/>
<stop offset="0.231" stop-color="#FFE141"/>
<stop offset="0.509" stop-color="#FFAF1E"/>
<stop offset="0.626" stop-color="#FF980E"/>
</radialGradient>
<linearGradient id="paint11_linear_992_192" x1="70.0095" y1="12.0572" x2="15.2635" y2="66.8022" gradientUnits="userSpaceOnUse">
<stop offset="0.167" stop-color="#FFF44F" stop-opacity="0.8"/>
<stop offset="0.266" stop-color="#FFF44F" stop-opacity="0.634"/>
<stop offset="0.489" stop-color="#FFF44F" stop-opacity="0.217"/>
<stop offset="0.6" stop-color="#FFF44F" stop-opacity="0"/>
</linearGradient>
<clipPath id="clip0_992_192">
<rect width="240" height="80" fill="white"/>
</clipPath>
</defs>
</svg>
