<svg xmlns="http://www.w3.org/2000/svg" width="243" height="107" fill="none"><g clip-path="url(#a)"><path fill="#D9241C" d="m0 89.884 25.763 16.477V32.359L0 14.682z"/><path fill="#000" d="m41.645 50.335 26.062-15.28V17.377L41.646 0zM43.445 71.607v2.997L68.313 91.08V55.129z"/><path fill="#D9241C" d="M100.6 73.405h-9.287V35.054h9.287v14.08h18.574v-14.08h9.287v38.35h-9.287V57.224H100.6zM178.199 53.627v19.477h11.385V53.627c0-2.696 1.199-5.392 3.293-7.188 2.099-2.099 4.794-2.997 8.092-2.997V32.955c-6.294 0-11.686 2.098-16.179 5.993s-6.591 8.987-6.591 14.68M232.427 53.627c0 2.7-.898 5.091-2.696 6.893-1.801 1.797-4.196 2.996-6.595 2.996-2.696 0-4.79-.902-6.592-2.996-1.797-1.802-2.695-4.192-2.695-6.893 0-2.696.898-5.09 2.695-6.888 1.802-1.798 4.196-2.7 6.592-2.7 2.7 0 4.794.902 6.595 2.997 1.798 1.797 2.696 4.191 2.696 6.892zm-9.291-19.477c-5.392 0-9.885 1.801-13.479 5.692-3.599 3.896-5.692 8.393-5.692 13.784s1.797 10.19 5.692 13.784c3.595 3.896 8.088 5.692 13.479 5.692 5.396 0 9.889-1.797 13.483-5.692s5.692-8.393 5.692-13.784c0-5.39-1.797-10.186-5.692-13.784-3.594-3.89-8.087-5.692-13.483-5.692M171.907 55.424h-23.97v2.1c0 3.292.598 5.691 1.797 6.887q1.798 1.804 4.493 1.802c3.895 0 5.993-2.099 6.591-6.592l11.385.598c-2.098 8.69-8.087 13.187-17.976 13.187-6.291 0-10.784-1.8-14.081-5.099-3.298-3.595-4.794-8.088-4.794-13.78 0-6.59 1.797-11.385 5.095-14.979 3.293-3.298 8.087-5.095 13.78-5.095 5.095 0 9.588 1.5 12.885 4.497 3.595 2.992 5.091 8.686 5.091 16.777zm-11.987-5.993v-.895c0-4.798-2.098-7.193-5.994-7.193-3.891 0-5.989 2.696-5.989 8.39h11.682z"/></g><defs><clipPath id="a"><path fill="#fff" d="M0 0h242.312v106.361H0z"/></clipPath></defs></svg>