<svg xmlns="http://www.w3.org/2000/svg" width="100" height="56" fill="none"><g fill="#5AD235" clip-path="url(#a)"><path d="m15.998 47.088-3.475 7.454a.495.495 0 0 0 .449.705h2.871a.5.5 0 0 0 .449-.286l3.475-7.452a.494.494 0 0 0-.449-.704h-2.872a.5.5 0 0 0-.448.285zM95.305 48.676l-.562 1.202a.247.247 0 0 0 .224.352h3.186a.247.247 0 0 1 .225.352l-.442.947a.5.5 0 0 1-.449.286h-3.333a.5.5 0 0 0-.449.285l-.562 1.205a.25.25 0 0 0 .224.353h3.187a.247.247 0 0 1 .225.352l-.442.947a.5.5 0 0 1-.449.286H89.83a.99.99 0 0 1-.897-1.409l2.944-6.315a1.24 1.24 0 0 1 1.125-.714h6.751a.247.247 0 0 1 .225.352l-.442.947a.5.5 0 0 1-.45.286h-3.332a.5.5 0 0 0-.45.286M51.116 47.157l-.442.947a.5.5 0 0 1-.449.286H49a.5.5 0 0 0-.448.286L45.62 54.96a.5.5 0 0 1-.449.286H42.3a.495.495 0 0 1-.449-.704l2.706-5.8a.247.247 0 0 0-.224-.352h-1.08a.247.247 0 0 1-.224-.352l.441-.95a.5.5 0 0 1 .448-.285h6.974a.247.247 0 0 1 .224.352zM67.215 47.52l-2.946 6.318a.99.99 0 0 0 .897 1.409h7.963a1.24 1.24 0 0 0 1.122-.715l2.944-6.319a.99.99 0 0 0-.895-1.408h-7.964a1.24 1.24 0 0 0-1.121.714m3.162 6.142h-1.673a.248.248 0 0 1-.224-.352l2.158-4.634a.5.5 0 0 1 .449-.286h1.675a.246.246 0 0 1 .247.231.25.25 0 0 1-.023.12l-2.162 4.634a.5.5 0 0 1-.447.287M90.026 47.509l-3.276 7.023a1.24 1.24 0 0 1-1.122.715h-2.851a.495.495 0 0 1-.495-.495v-3.804a.248.248 0 0 0-.472-.105l-1.92 4.118a.5.5 0 0 1-.448.286h-2.873a.495.495 0 0 1-.448-.705l3.272-7.023a1.24 1.24 0 0 1 1.122-.715h2.855a.495.495 0 0 1 .495.496v3.802a.247.247 0 0 0 .472.105l1.92-4.12a.5.5 0 0 1 .448-.285h2.871a.495.495 0 0 1 .45.707M37.5 48.676l-.563 1.202a.248.248 0 0 0 .224.352h3.187a.247.247 0 0 1 .225.352l-.442.947a.5.5 0 0 1-.448.286h-3.334a.5.5 0 0 0-.448.285l-.56 1.21a.248.248 0 0 0 .223.352h3.187a.248.248 0 0 1 .224.352l-.442.947a.5.5 0 0 1-.448.286h-6.06a.99.99 0 0 1-.988-.926 1 1 0 0 1 .091-.483l2.947-6.319a1.24 1.24 0 0 1 1.121-.714h6.752a.248.248 0 0 1 .224.352l-.442.947a.5.5 0 0 1-.448.286h-3.334a.5.5 0 0 0-.448.286M32.22 47.509l-3.275 7.023a1.24 1.24 0 0 1-1.12.715h-2.856a.495.495 0 0 1-.495-.495v-3.804a.248.248 0 0 0-.357-.223.25.25 0 0 0-.115.118l-1.92 4.118a.49.49 0 0 1-.449.286h-2.872a.495.495 0 0 1-.449-.705l3.275-7.023a1.24 1.24 0 0 1 1.122-.715h2.855a.495.495 0 0 1 .495.496v3.802a.247.247 0 0 0 .472.105l1.92-4.12a.5.5 0 0 1 .449-.285h2.871a.494.494 0 0 1 .449.707M13.954 47.509l-3.275 7.023a1.24 1.24 0 0 1-1.122.715H6.703a.496.496 0 0 1-.495-.495v-3.804a.248.248 0 0 0-.471-.105l-1.92 4.118a.5.5 0 0 1-.45.286H.496a.494.494 0 0 1-.449-.705l3.276-7.023a1.24 1.24 0 0 1 1.121-.715h2.855a.495.495 0 0 1 .495.496v3.802a.248.248 0 0 0 .472.105l1.92-4.12a.5.5 0 0 1 .449-.285h2.872a.494.494 0 0 1 .448.707M61.985 47.187l-5.654 4.924a.24.24 0 0 0-.062.082l-1.314 2.82a.49.49 0 0 1-.449.285h-2.874a.495.495 0 0 1-.449-.704l1.61-3.455a.25.25 0 0 0 .011-.182l-1.221-3.775a.247.247 0 0 1 .235-.324h1.476a.37.37 0 0 1 .353.257l.608 1.867a.125.125 0 0 0 .145.083.1.1 0 0 0 .054-.028l2.533-2.223a.25.25 0 0 1 .164-.061h4.671a.248.248 0 0 1 .164.434M82.288 28.39h4.35a1.024 1.024 0 0 1 .93 1.458l-1.83 3.922a2.05 2.05 0 0 1-1.857 1.185H55.01a1.024 1.024 0 0 1-.93-1.458l1.829-3.923a2.05 2.05 0 0 1 1.858-1.184h5.191a2.05 2.05 0 0 0 1.858-1.184l8.95-19.18a1.025 1.025 0 0 0-.929-1.459h-4.469a1.025 1.025 0 0 1-.929-1.457l1.829-3.923A2.05 2.05 0 0 1 71.126.003h16.36A4.1 4.1 0 0 1 91.2 5.836l-9.84 21.099a1.025 1.025 0 0 0 .928 1.458zM20.884 6.241l-6.26 13.427a3.075 3.075 0 0 0 2.786 4.372h19.771a1.025 1.025 0 0 1 .93 1.458l-2.33 4.99a2.05 2.05 0 0 1-1.857 1.182H17.176a1.025 1.025 0 0 1-.929-1.459l.649-1.389a.51.51 0 0 0-.465-.729h-5.086a1.02 1.02 0 0 0-.93.592l-1.733 3.716a4.1 4.1 0 0 0 3.716 5.833h32.925a5.13 5.13 0 0 0 4.645-2.96L62.165 9.112A4.098 4.098 0 0 0 58.45 3.28H25.53a5.12 5.12 0 0 0-4.645 2.961zm19.66 11.236h-6.88a1.026 1.026 0 0 1-.929-1.458l2.329-4.99a2.05 2.05 0 0 1 1.858-1.182h6.877a1.025 1.025 0 0 1 .93 1.458l-2.33 4.99a2.05 2.05 0 0 1-1.854 1.182"/></g><defs><clipPath id="a"><path fill="#fff" d="M0 0h100v55.298H0z"/></clipPath></defs></svg>