<svg xmlns="http://www.w3.org/2000/svg" width="164" height="38" fill="none"><path fill="#000" d="M40.327 15.675c.56-2.109 1.385-4.154 2.39-6.088-1.284-1.924-2.874-3.712-4.74-5.073C34.54 2.01 30.155.95 25.801.627 21.16.284 16.552.78 12.31 2.584c-3.898 1.658-7.488 4.424-9.65 7.994C.922 13.448.11 16.84.01 20.296c-.092 3.237.442 6.532 2.067 9.204 1.545 2.541 4.078 4.516 6.818 5.83 3.362 1.617 7.033 2.241 10.749 2.393 4.127.17 8.31-.246 12.108-1.748 2.867-1.132 5.512-2.885 7.803-4.943-.292-2.385-.376-4.795-.303-7.205.083-2.748.371-5.5 1.077-8.152zm-11.05 4.21c-.513 1.563-1.529 2.891-2.84 3.731-1.35.867-3.016 1.218-4.645 1.29-1 .045-1.988-.014-2.944-.283-1.464-.409-2.858-1.304-3.735-2.557-1.05-1.495-1.366-3.5-.937-5.325.486-2.071 1.93-3.907 3.735-4.87 1.627-.866 3.545-1.022 5.47-.752 1.955.273 3.916.983 5.058 2.416 1.303 1.636 1.536 4.215.837 6.35M147.487 13.14c-.07 1.82.407 3.69 1.515 5 1.157 1.365 2.999 2.123 4.892 2.39 2.548.358 5.189-.174 7.113-1.746 1.653-1.355 2.777-3.478 2.893-5.583.121-2.165-.824-4.311-2.559-5.615-1.876-1.41-4.677-1.834-7.207-1.442-2.104.325-4.024 1.213-5.202 2.717-.915 1.168-1.385 2.707-1.445 4.281zM41.699 20.068c.495-3.496 1.42-7.073 3.263-10.14 1.325-2.206 3.124-4.147 5.334-5.49 2.293-1.397 5.028-2.149 7.726-1.865 2.282.24 4.538 1.22 6.125 2.775 1.59 1.554 2.509 3.68 3.397 5.809.376.901.745 1.803 1.47 2.438.44.385 1.01.673 1.575.699.779.035 1.548-.429 2.197-.985 1.53-1.31 2.396-3.133 3.33-4.762.854-1.484 1.766-2.808 2.975-3.942 1.509-1.416 3.48-2.535 5.631-2.588 1.977-.049 4.105.802 5.347 2.392.884 1.13 1.32 2.634 2.172 3.729.423.54.946.983 1.515 1.02.649.042 1.36-.44 1.878-1.073.695-.846 1.046-1.966 1.605-2.95 1.077-1.894 2.924-3.29 4.91-3.562 2.123-.293 4.408.703 5.949 2.227 1.231 1.218 1.986 2.77 2.656 4.373.488 1.163.93 2.353 1.878 3.26.574.55 1.334.997 2.045 1.036.743.042 1.433-.358 2.016-.87 1.27-1.12 2.02-2.769 2.893-4.312.924-1.636 1.983-3.153 3.375-4.298 1.497-1.232 3.382-2.034 5.374-2.401 2.75-.506 5.707-.183 8.124 1.103 1.576.84 2.922 2.091 3.935 3.545 1.953 2.803 2.665 6.363 3.017 9.792.347 3.38.345 6.63-.022 10.143-.258 2.456-.691 5.04-2.309 6.703-1.143 1.174-2.874 1.89-4.599 1.891-2.509 0-5.002-1.51-6.146-3.634-.941-1.746-.969-3.907-1.152-6.523-.176-2.547-.497-5.524-1.519-6.792-.572-.708-1.363-.884-2.076-.523-.98.497-1.809 2.011-2.436 3.408-.853 1.906-1.328 3.59-2.354 5.305-.774 1.29-1.861 2.596-3.224 3.291-.96.49-2.06.675-3.175.644-2.005-.057-4.065-.815-5.38-2.225-1.163-1.246-1.743-2.998-2.251-4.828-.343-1.238-.655-2.51-1.343-3.491-.502-.717-1.205-1.278-1.953-1.31-.73-.034-1.502.437-2.04 1.105-.653.814-.961 1.92-1.198 2.993-.521 2.361-.697 4.555-1.045 6.826-.301 1.97-.732 4-1.99 5.367-1.013 1.104-2.563 1.779-4.184 1.968-1.737.202-3.557-.152-4.764-.963-1.346-.904-1.935-2.374-2.315-4.294-.623-3.13-.693-7.451-1.62-10.29-.322-.98-.746-1.785-1.476-2.053-.464-.172-1.05-.125-1.55.191-.805.51-1.38 1.726-1.88 2.898-1.176 2.757-1.935 5.257-3.537 7.141-.794.933-1.792 1.713-2.951 2.186-1.563.637-3.415.716-5.009.127-1.372-.508-2.554-1.51-3.39-2.71-1.022-1.47-1.526-3.233-2.128-5.051-.273-.827-.568-1.667-1.034-2.344-.492-.712-1.178-1.246-1.829-1.328-.873-.108-1.682.6-2.262 1.614-.528.92-.869 2.089-1.128 3.219-.636 2.775-.779 5.307-1.41 7.867-.356 1.444-.866 2.897-1.864 3.847-1.148 1.095-2.942 1.526-4.703 1.445-1.913-.088-3.784-.783-4.931-2.058-1.39-1.546-1.715-3.942-1.863-6.207a41 41 0 0 1 .321-8.517z"/></svg>